# AST/ASF file generated using VICON BodyLanguage
# -----------------------------------------------
:version 1.10
:name VICON
:units
  mass 1.0
  length 0.45
  angle deg
:documentation
   .ast/.asf automatically generated from VICON data using
   VICON BodyBuilder and BodyLanguage model FoxedUp or BRILLIANT.MOD
:root
   order TX TY TZ RX RY RZ
   axis XYZ
   position 0 0 0  
   orientation 0 0 0 
:bonedata
  begin
     id 1 
     name lhipjoint
     direction 0.700308 -0.549349 0.455834 
     length 2.59063 
     axis 0 0 0  XYZ
  end
  begin
     id 2 
     name lfemur
     direction 0.34202 -0.939693 0  
     length 6.31066  
     axis 0 0 20  XYZ
    dof rx ry rz
    limits (-160.0 20.0)
           (-70.0 70.0)
           (-60.0 70.0)
  end
  begin
     id 3 
     name ltibia
     direction 0.34202 -0.939693 0   
     length 7.36093   
     axis 0 0 20   XYZ
    dof rx
    limits (-10.0 170.0)
  end
  begin
     id 4 
     name lfoot
     direction 0.0905332 -0.248738 0.96433   
     length 2.0233   
     axis -90 7.62852e-016 20   XYZ
    dof rx rz
    limits (-45.0 90.0)
           (-70.0 20.0)
  end
  begin
     id 5 
     name ltoes
     direction 1.53573e-011 -4.21855e-011 1   
     length 1.01524   
     axis -90 7.62852e-016 20   XYZ
    dof rx
    limits (-90.0 20.0)
  end
  begin
     id 6 
     name rhipjoint
     direction -0.61416 -0.607328 0.503944   
     length 2.34332  
     axis 0 0 0  XYZ 
  end
  begin
     id 7 
     name rfemur
     direction -0.34202 -0.939693 0   
     length 6.58548   
     axis 0 0 -20   XYZ
    dof rx ry rz
    limits (-160.0 20.0)
           (-70.0 70.0)
           (-70.0 60.0)
  end
  begin
     id 8 
     name rtibia
     direction -0.34202 -0.939693 0   
     length 7.20707   
     axis 0 0 -20   XYZ
    dof rx
    limits (-10.0 170.0)
 end
 begin
     id 9 
     name rfoot
     direction -0.136772 -0.375778 0.916561   
     length 1.92184  
     axis -90 -7.62852e-016 -20   XYZ
    dof rx rz
    limits (-45.0 90.0)
           (-20.0 70.0)
  end
  begin
     id 10 
     name rtoes
     direction -1.53535e-011 -4.21828e-011 1   
     length 0.951089   
     axis -90 -7.62852e-016 -20   XYZ
    dof rx
    limits (-90.0 20.0)
  end
  begin
     id 11 
     name lowerback
     direction -0.0444974 0.988086 -0.147332   
     length 1.9609   
     axis 0 0 0   XYZ
    dof rx ry rz
    limits (-20.0 45.0)
           (-30.0 30.0)
           (-30.0 30.0)
  end
  begin
     id 12 
     name upperback
     direction 0.00613146 0.999513 0.0306081   
     length 1.94944   
     axis 0 0 0   XYZ
    dof rx ry rz
    limits (-20.0 45.0)
           (-30.0 30.0)
           (-30.0 30.0)
  end
  begin
     id 13 
     name thorax
     direction 0.0254621 0.994518 0.101418   
     length 2.0119   
     axis 0 0 0   XYZ
    dof rx ry rz
    limits (-20.0 45.0)
           (-30.0 30.0)
           (-30.0 30.0)
  end
  begin
     id 14 
     name lowerneck
     direction 0.0168698 0.977854 0.208608   
     length 1.6375   
     axis 0 0 0   XYZ
    dof rx ry rz
    limits (-20.0 45.0)
           (-30.0 30.0)
           (-30.0 30.0)
  end
  begin
     id 15 
     name upperneck
     direction -0.0283988 0.989338 -0.142843   
     length 1.6851   
     axis 0 0 0   XYZ
    dof rx ry rz
    limits (-20.0 45.0)
           (-30.0 30.0)
           (-30.0 30.0)
  end
  begin
     id 16
     name head
     direction -0.0129422 0.99741 -0.0707489  
     length 1.69029  
     axis 0 0 0   XYZ
    dof rx ry rz
    limits (-20.0 45.0)
           (-30.0 30.0)
           (-30.0 30.0)
  end
  begin
     id 17 
     name lclavicle
     direction 0.820295 0.564628 -0.0911715  
     length 3.16484  
     axis 0 0 0   XYZ
    dof ry rz
    limits (-20.0 10.0)
           (0.0 20.0)
  end
  begin
     id 18 
     name lhumerus
     direction 1 -4.48969e-011 1.00186e-027   
     length 5.17853   
     axis 180 -30 -90   XYZ
    dof rx ry rz
    limits (-60.0 90.0)
           (-90.0 90.0)
           (-90.0 90.0)
  end
  begin
     id 19
     name lradius
     direction 1 -4.48966e-011 -1.52922e-027   
     length 3.40399   
     axis 180 -30 -90   XYZ
    dof rx
    limits (-10.0 170.0)
  end
  begin
     id 20
     name lwrist
     direction 1 -4.48981e-011 -3.80893e-027   
     length 1.70199   
     axis 1.1049e-015 90 90   XYZ
    dof ry
    limits (-180.0 0.0)
 end
  begin
     id 21 
     name lhand
     direction 1 -4.48957e-011 -7.61786e-027   
     length 0.708964   
     axis 4.86085e-015 90 90   XYZ
    dof rx rz
    limits (-90.0 90.0)
           (-45.0 45.0)
  end
  begin
     id 22 
     name lfingers
     direction 1 -4.48929e-011 -1.52357e-026   
     length 0.571585   
     axis 9.7217e-015 90 90   XYZ
    dof rx
    limits (0.0 90.0)
  end
  begin
     id 23
     name lthumb
     direction 0.707107 -6.34905e-011 0.707107   
     length 0.820685   
     axis -90 45 2.85299e-015   XYZ
    dof rx rz
    limits (-45.0 45.0)
           (-45.0 45.0)
  end
  begin
     id 24 
     name rclavicle
     direction -0.858602 0.463947 -0.218075   
     length 3.35137  
     axis 0 0 0   XYZ 
    dof ry rz
    limits (-10.0 20.0)
           (-20.0 0.0)
  end
  begin
     id 25 
     name rhumerus
     direction -1 -4.48969e-011 -1.98511e-027  
     length 5.42351   
     axis 180 30 90   XYZ
    dof rx ry rz
    limits (-90.0 60.0)
           (-90.0 90.0)
           (-90.0 90.0)
  end
  begin
     id 26 
     name rradius
     direction -1 -4.48961e-011 -2.82624e-027   
     length 3.42066   
     axis 180 30 90   XYZ
    dof rx
    limits (-10.0 170.0)
  end
  begin
     id 27 
     name rwrist
     direction -1 -4.48966e-011 -3.80893e-027   
     length 1.71033   
     axis 1.1049e-015 -90 -90   XYZ
    dof ry
    limits (-180.0 0.0)
  end
  begin
     id 28
     name rhand
     direction -1 -4.48964e-011 -7.61786e-027   
     length 0.743608   
     axis 4.86085e-015 -90 -90   XYZ
    dof rx rz
    limits (-90.0 90.0)
           (-45.0 45.0)
  end
  begin
     id 29
     name rfingers
     direction -1 -4.48961e-011 -1.52357e-026   
     length 0.599516   
     axis 9.7217e-015 -90 -90   XYZ
    dof rx
    limits (0.0 90.0)
  end
  begin
     id 30
     name rthumb
     direction -0.707107 -6.34913e-011 0.707107   
     length 0.860789   
     axis -90 -45 -2.85299e-015   XYZ
    dof rx rz
    limits (-45.0 45.0)
           (-45.0 45.0)
  end
:hierarchy
  begin
    root lhipjoint rhipjoint lowerback
    lhipjoint lfemur
    lfemur ltibia
    ltibia lfoot
    lfoot ltoes
    rhipjoint rfemur
    rfemur rtibia
    rtibia rfoot
    rfoot rtoes
    lowerback upperback
    upperback thorax
    thorax lowerneck lclavicle rclavicle
    lowerneck upperneck
    upperneck head
    lclavicle lhumerus
    lhumerus lradius
    lradius lwrist
    lwrist lhand lthumb
    lhand lfingers
    rclavicle rhumerus
    rhumerus rradius
    rradius rwrist
    rwrist rhand rthumb
    rhand rfingers
  end

#!OML:ASF E:\mmandel\Project 1\Capture day 1\Session 2\Subject.ASF
:FULLY-SPECIFIED
:DEGREES
805
root 7.81745 14.7754 -2.48708 671.253 86.6921 651.199
lowerback 26.2235 -0.0654879 0.125274
upperback 2.54124 0.244215 0.531797
thorax -11.7909 0.21502 0.423259
lowerneck -16.588 3.93397 5.60558
upperneck 0.626919 4.7505 -7.82356
head 3.15365 2.10059 -2.94659
rclavicle -1.27222e-014 -9.54166e-015
rhumerus -9.64036 4.7866 -83.1274
rradius 72.9694
rwrist -17.2395
rhand -17.1815 37.5405
rfingers 7.12502
rthumb 9.06017 7.75507
lclavicle -1.27222e-014 -9.54166e-015
lhumerus -5.94662 -12.5049 74.54
lradius 61.8163
lwrist 27.7042
lhand -18.7604 327.519
lfingers 7.12502
lthumb 7.53645 -2.63501
rfemur -54.8508 -10.5593 12.6881
rtibia 59.761
rfoot -24.5121 -8.682
rtoes -17.2035
lfemur -57.9477 17.9875 -13.7218
ltibia 63.4298
lfoot -21.7048 -4.63461
ltoes -1.34233
806
root 7.8266 14.7837 -2.46788 670.488 86.8258 650.511
lowerback 26.1428 -0.0940353 0.0416626
upperback 2.62104 0.182971 0.504079
thorax -11.6555 0.191687 0.461395
lowerneck -16.5434 3.91534 5.75239
upperneck 0.40817 4.70527 -8.02292
head 3.08708 2.07595 -3.03742
rclavicle 4.77083e-015 -1.53064e-014
rhumerus -9.61766 4.79325 -83.1464
rradius 73.2634
rwrist -17.1971
rhand -17.0842 37.7194
rfingers 7.12502
rthumb 9.15411 7.93805
lclavicle 4.77083e-015 -1.53064e-014
lhumerus -5.99053 -12.4794 74.5737
lradius 61.7725
lwrist 27.7163
lhand -18.6741 327.742
lfingers 7.12502
lthumb 7.61969 -2.41522
rfemur -54.6718 -10.5362 12.601
rtibia 59.7974
rfoot -24.6789 -8.69397
rtoes -16.7891
lfemur -57.7609 17.9878 -13.7513
ltibia 63.2984
lfoot -21.6829 -4.74352
ltoes -1.50277
807
root 7.82757 14.7777 -2.44717 668.942 86.88 648.977
lowerback 26.0618 -0.112688 0.0524742
upperback 2.68817 0.165087 0.508477
thorax -11.535 0.184223 0.466026
lowerneck -16.5874 3.75742 5.74599
upperneck 0.251438 4.48986 -8.01015
head 3.03086 1.97259 -3.05051
rclavicle -2.70347e-014 -5.48646e-014
rhumerus -9.58597 4.78917 -83.1884
rradius 73.6299
rwrist -17.2936
rhand -17.0932 37.834
rfingers 7.12502
rthumb 9.14545 8.0523
lclavicle -2.70347e-014 -5.48646e-014
lhumerus -6.0378 -12.4464 74.6194
lradius 61.8851
lwrist 27.7975
lhand -18.5603 328.082
lfingers 7.12502
lthumb 7.72959 -2.07893
rfemur -54.6763 -10.46 12.6172
rtibia 59.8877
rfoot -24.8075 -8.80076
rtoes -16.7203
lfemur -57.7711 17.9975 -13.6911
ltibia 63.2548
lfoot -21.6486 -4.85252
ltoes -1.58959
808
root 7.82641 14.7712 -2.42851 667.512 86.9193 647.516
lowerback 26.119 -0.100857 0.0955121
upperback 2.61866 0.19092 0.514231
thorax -11.6455 0.1931 0.43898
lowerneck -16.5013 3.65157 5.51669
upperneck 0.279785 4.3793 -7.72609
head 3.00523 1.92953 -2.9354
rclavicle -1.8487e-014 -4.1546e-014
rhumerus -9.71353 4.74559 -83.1529
rradius 73.9923
rwrist -17.3629
rhand -17.1063 37.7694
rfingers 7.12502
rthumb 9.13275 7.98719
lclavicle -1.8487e-014 -4.1546e-014
lhumerus -6.19642 -12.5586 74.7487
lradius 61.8573
lwrist 27.8012
lhand -18.6313 327.934
lfingers 7.12502
lthumb 7.66108 -2.22511
rfemur -54.7728 -10.4401 12.679
rtibia 59.9906
rfoot -24.897 -8.88911
rtoes -16.7286
lfemur -57.8405 17.9802 -13.6278
ltibia 63.2309
lfoot -21.6144 -4.92182
ltoes -1.12708
809
root 7.82925 14.7724 -2.41284 665.547 86.9392 645.478
lowerback 26.1046 -0.0978594 0.191824
upperback 2.53366 0.218799 0.520579
thorax -11.7357 0.199549 0.381238
lowerneck -16.4538 3.68001 5.37861
upperneck 0.413354 4.43969 -7.57686
head 3.03506 1.96306 -2.86193
rclavicle -1.61016e-014 -3.57812e-014
rhumerus -9.86613 4.66823 -83.085
rradius 74.3805
rwrist -17.3431
rhand -17.1153 37.6127
rfingers 7.12502
rthumb 9.12413 7.83002
lclavicle -1.61016e-014 -3.57812e-014
lhumerus -6.32751 -12.7572 74.8646
lradius 61.6816
lwrist 27.8528
lhand -18.6971 327.75
lfingers 7.12502
lthumb 7.59749 -2.40657
rfemur -54.8616 -10.5367 12.8046
rtibia 60.0759
rfoot -25.0329 -8.80141
rtoes -16.2184
lfemur -57.9175 17.9664 -13.564
ltibia 63.1845
lfoot -21.5669 -4.87381
ltoes -1.2823
810
root 7.83353 14.7758 -2.3948 664.552 86.9399 644.424
lowerback 26.0002 -0.0898237 0.166969
upperback 2.52739 0.224778 0.555983
thorax -11.6875 0.20405 0.433565
lowerneck -16.4492 3.65778 5.26203
upperneck 0.344794 4.42671 -7.49715
head 3.00774 1.96143 -2.82007
rclavicle -5.1684e-015 -9.14409e-015
rhumerus -9.90412 4.73019 -83.0201
rradius 74.7239
rwrist -17.3264
rhand -17.1441 37.626
rfingers 7.12502
rthumb 9.09633 7.8422
lclavicle -5.1684e-015 -9.14409e-015
lhumerus -6.37704 -12.7714 74.9168
lradius 61.5516
lwrist 27.8703
lhand -18.5849 327.871
lfingers 7.12502
lthumb 7.70578 -2.28955
rfemur -54.9354 -10.5992 12.9313
rtibia 60.1432
rfoot -25.1245 -8.7691
rtoes -16.0143
lfemur -57.9354 17.9951 -13.4981
ltibia 63.1276
lfoot -21.5499 -4.82351
ltoes -1.87333
811
root 7.83686 14.7769 -2.37444 664.662 87.0421 644.558
lowerback 25.9976 -0.0741556 0.00620813
upperback 2.53532 0.201997 0.572371
thorax -11.6772 0.20224 0.552718
lowerneck -16.1966 3.56422 4.9545
upperneck 0.00500841 4.34272 -7.2088
head 2.84547 1.94221 -2.69315
rclavicle 6.36111e-015 7.7526e-015
rhumerus -9.87567 4.91411 -82.9497
rradius 74.942
rwrist -17.415
rhand -17.2276 37.6517
rfingers 7.12502
rthumb 9.01569 7.86439
lclavicle 6.36111e-015 7.7526e-015
lhumerus -6.45513 -12.6516 75.0283
lradius 61.454
lwrist 27.775
lhand -18.3943 327.989
lfingers 7.12502
lthumb 7.88977 -2.1786
rfemur -54.9334 -10.6187 12.8955
rtibia 60.2229
rfoot -25.1745 -8.74984
rtoes -15.7395
lfemur -57.8177 17.9 -13.4768
ltibia 63.0534
lfoot -21.5446 -4.84031
ltoes -1.42079
812
root 7.83713 14.7752 -2.35602 662.886 87.1 642.786
lowerback 26.0018 -0.0886995 0.0822519
upperback 2.55036 0.205138 0.565977
thorax -11.662 0.200227 0.500425
lowerneck -16.036 3.46493 4.61053
upperneck -0.135227 4.25559 -6.83866
head 2.75526 1.91856 -2.53344
rclavicle -1.15295e-014 -2.98177e-014
rhumerus -9.7744 4.9422 -82.8936
rradius 75.1016
rwrist -17.5141
rhand -17.4409 37.6358
rfingers 7.12502
rthumb 8.80992 7.83965
lclavicle -1.15295e-014 -2.98177e-014
lhumerus -6.50449 -12.6592 75.143
lradius 61.3756
lwrist 27.7032
lhand -18.2671 327.962
lfingers 7.12502
lthumb 8.01253 -2.2101
rfemur -54.9513 -10.6521 12.9355
rtibia 60.3203
rfoot -25.1656 -8.77388
rtoes -15.6196
lfemur -57.7817 17.7491 -13.3765
ltibia 62.9861
lfoot -21.5022 -4.80832
ltoes -0.971212
813
root 7.83698 14.7742 -2.33593 659.851 87.0623 639.767
lowerback 25.9855 -0.116752 0.287218
upperback 2.59272 0.227814 0.554426
thorax -11.6043 0.201298 0.360977
lowerneck -16.0659 3.39239 4.46571
upperneck -0.0362209 4.17509 -6.6124
head 2.77592 1.8848 -2.44585
rclavicle -1.0138e-014 -2.82274e-014
rhumerus -9.69013 4.82896 -82.8899
rradius 75.3035
rwrist -17.4961
rhand -17.5875 37.7237
rfingers 7.12502
rthumb 8.66846 7.92165
lclavicle -1.0138e-014 -2.82274e-014
lhumerus -6.58995 -12.7602 75.1621
lradius 61.393
lwrist 27.5937
lhand -18.2396 327.968
lfingers 7.12502
lthumb 8.03906 -2.20468
rfemur -54.9415 -10.6883 13.1134
rtibia 60.4142
rfoot -25.2048 -8.88005
rtoes -15.8162
lfemur -57.7639 17.7146 -13.1948
ltibia 62.9089
lfoot -21.4801 -4.77361
ltoes -1.6296
814
root 7.83872 14.7752 -2.31269 656.576 87.0883 636.602
lowerback 26.0872 -0.150812 0.368583
upperback 2.62232 0.209 0.540195
thorax -11.6242 0.189674 0.304322
lowerneck -16.1966 3.3496 4.62349
upperneck 0.0907824 4.09464 -6.73129
head 2.83648 1.83587 -2.51165
rclavicle 9.14409e-015 2.18663e-014
rhumerus -9.69247 4.73218 -82.911
rradius 75.5638
rwrist -17.4467
rhand -17.3862 37.6973
rfingers 7.12502
rthumb 8.86265 7.9034
lclavicle 9.14409e-015 2.18663e-014
lhumerus -6.75883 -12.8387 75.1766
lradius 61.4557
lwrist 27.5508
lhand -18.0702 328.105
lfingers 7.12502
lthumb 8.20258 -2.07428
rfemur -54.8065 -10.7766 13.2274
rtibia 60.4968
rfoot -25.3926 -8.88238
rtoes -15.5357
lfemur -57.6194 17.7141 -13.0688
ltibia 62.7898
lfoot -21.4382 -4.95936
ltoes -1.81116
815
root 7.84039 14.7784 -2.29014 654.11 87.184 634.184
lowerback 26.1562 -0.168545 0.335689
upperback 2.62869 0.179219 0.543199
thorax -11.6535 0.178384 0.337066
lowerneck -16.3108 3.30579 4.86618
upperneck 0.0765399 4.00734 -7.07304
head 2.859 1.77796 -2.66148
rclavicle -9.93923e-015 -6.36111e-015
rhumerus -9.66223 4.72433 -82.8499
rradius 75.8156
rwrist -17.4992
rhand -17.1928 37.6981
rfingers 7.12502
rthumb 9.04929 7.91221
lclavicle -9.93923e-015 -6.36111e-015
lhumerus -6.78855 -12.8754 75.2505
lradius 61.3943
lwrist 27.6429
lhand -17.8614 328.064
lfingers 7.12502
lthumb 8.40413 -2.12275
rfemur -54.7465 -10.8497 13.2413
rtibia 60.5736
rfoot -25.5539 -8.87613
rtoes -15.2126
lfemur -57.5114 17.6608 -13.0434
ltibia 62.6458
lfoot -21.353 -5.13836
ltoes -1.2393
816
root 7.84247 14.7837 -2.26971 653.095 87.2869 633.097
lowerback 26.0753 -0.157392 0.301908
upperback 2.59715 0.178556 0.523591
thorax -11.6467 0.178103 0.334824
lowerneck -16.2201 3.24348 4.83628
upperneck -0.0273545 3.93032 -7.07583
head 2.80868 1.74301 -2.66483
rclavicle 7.15625e-015 1.53064e-014
rhumerus -9.67573 4.72573 -82.7988
rradius 76.1137
rwrist -17.5519
rhand -17.2918 37.7747
rfingers 7.12502
rthumb 8.95379 7.98465
lclavicle 7.15625e-015 1.53064e-014
lhumerus -6.83488 -12.9305 75.3511
lradius 61.3324
lwrist 27.6347
lhand -17.9558 327.874
lfingers 7.12502
lthumb 8.31303 -2.31
rfemur -54.8246 -10.8599 13.2159
rtibia 60.651
rfoot -25.5719 -8.975
rtoes -15.5276
lfemur -57.5072 17.6071 -13.0807
ltibia 62.5044
lfoot -21.2659 -5.2014
ltoes -0.87358
817
root 7.84315 14.7868 -2.24749 651.815 87.3815 631.742
lowerback 25.9903 -0.146289 0.278364
upperback 2.55349 0.178879 0.494339
thorax -11.6515 0.177189 0.315523
lowerneck -16.0444 3.18641 4.5897
upperneck -0.0255379 3.88545 -6.73957
head 2.76605 1.73575 -2.52675
rclavicle 1.39149e-014 3.24019e-014
rhumerus -9.71338 4.69267 -82.8185
rradius 76.4377
rwrist -17.5375
rhand -17.3785 37.7141
rfingers 7.12502
rthumb 8.87009 7.92056
lclavicle 1.39149e-014 3.24019e-014
lhumerus -7.07363 -12.9396 75.4657
lradius 61.4316
lwrist 27.508
lhand -18.2187 327.732
lfingers 7.12502
lthumb 8.05925 -2.44158
rfemur -54.9188 -10.8488 13.2033
rtibia 60.7381
rfoot -25.604 -9.07082
rtoes -15.6981
lfemur -57.5621 17.651 -13.147
ltibia 62.3962
lfoot -21.1491 -5.31397
ltoes -0.841008
818
root 7.84079 14.7837 -2.22185 650.529 87.4085 630.447
lowerback 26.0155 -0.122105 0.205313
upperback 2.54331 0.193453 0.524398
thorax -11.677 0.188348 0.386482
lowerneck -15.8523 3.13953 4.5814
upperneck -0.36672 3.8162 -6.46407
head 2.95192 1.72953 -2.70366
rclavicle 2.98177e-015 -9.74045e-015
rhumerus -9.66878 4.74647 -82.7836
rradius 76.7065
rwrist -17.5391
rhand -17.4613 37.6048
rfingers 7.12502
rthumb 8.7902 7.80791
lclavicle 2.98177e-015 -9.74045e-015
lhumerus -7.27426 -12.8836 75.5656
lradius 61.4622
lwrist 27.3971
lhand -18.2649 327.61
lfingers 7.12502
lthumb 8.01471 -2.56235
rfemur -54.9915 -10.7876 13.2728
rtibia 60.8567
rfoot -25.687 -9.09937
rtoes -15.1984
lfemur -57.5877 17.7123 -13.0901
ltibia 62.3296
lfoot -21.0192 -5.34468
ltoes -0.969024
819
root 7.83795 14.7785 -2.19873 649.733 87.3864 629.614
lowerback 26.0746 -0.0966806 0.20987
upperback 2.50949 0.230101 0.54779
thorax -11.7477 0.205194 0.397514
lowerneck -16.2258 3.04433 4.59193
upperneck 0.0990827 3.6948 -6.73802
head 2.8209 1.63614 -2.5387
rclavicle -7.05686e-015 -7.7526e-015
rhumerus -9.66467 4.78579 -82.7294
rradius 76.9784
rwrist -17.5585
rhand -17.6034 37.5657
rfingers 7.12502
rthumb 8.65308 7.76303
lclavicle -7.05686e-015 -7.7526e-015
lhumerus -7.3747 -12.9183 75.6022
lradius 61.3795
lwrist 27.3579
lhand -18.219 327.564
lfingers 7.12502
lthumb 8.05897 -2.61014
rfemur -55.1327 -10.7891 13.4189
rtibia 60.9961
rfoot -25.721 -9.10158
rtoes -14.9984
lfemur -57.6217 17.6752 -12.9408
ltibia 62.2807
lfoot -20.9659 -5.29857
ltoes -1.19204
